  0
SECTION
  2
HEADER
  9
$ACADVER
  1
AC1009
  9
$DWGCODEPAGE
  3
ansi_1252
  9
$INSBASE
 10
0.0
 20
0.0
 30
0.0
  9
$EXTMIN
 10
100.9999999999999
 20
47.35432098765433
 30
0.0
  9
$EXTMAX
 10
196.0000000000001
 20
330.6350617283953
 30
0.0
  9
$LIMMIN
 10
0.0
 20
0.0
  9
$LIMMAX
 10
12.0
 20
9.0
  9
$ORTHOMODE
 70
     0
  9
$REGENMODE
 70
     1
  9
$FILLMODE
 70
     1
  9
$QTEXTMODE
 70
     0
  9
$MIRRTEXT
 70
     1
  9
$DRAGMODE
 70
     2
  9
$LTSCALE
 40
1.0
  9
$OSMODE
 70
    37
  9
$ATTMODE
 70
     1
  9
$TEXTSIZE
 40
0.2
  9
$TRACEWID
 40
0.05
  9
$TEXTSTYLE
  7
STANDARD
  9
$CLAYER
  8
0
  9
$CELTYPE
  6
BYLAYER
  9
$CECOLOR
 62
   256
  9
$DIMSCALE
 40
1.0
  9
$DIMASZ
 40
0.18
  9
$DIMEXO
 40
0.0625
  9
$DIMDLI
 40
0.38
  9
$DIMRND
 40
0.0
  9
$DIMDLE
 40
0.0
  9
$DIMEXE
 40
0.18
  9
$DIMTP
 40
0.0
  9
$DIMTM
 40
0.0
  9
$DIMTXT
 40
0.18
  9
$DIMCEN
 40
0.09
  9
$DIMTSZ
 40
0.0
  9
$DIMTOL
 70
     0
  9
$DIMLIM
 70
     0
  9
$DIMTIH
 70
     1
  9
$DIMTOH
 70
     1
  9
$DIMSE1
 70
     0
  9
$DIMSE2
 70
     0
  9
$DIMTAD
 70
     0
  9
$DIMZIN
 70
     0
  9
$DIMBLK
  1

  9
$DIMASO
 70
     1
  9
$DIMSHO
 70
     1
  9
$DIMPOST
  1

  9
$DIMAPOST
  1

  9
$DIMALT
 70
     0
  9
$DIMALTD
 70
     2
  9
$DIMALTF
 40
25.4
  9
$DIMLFAC
 40
1.0
  9
$DIMTOFL
 70
     0
  9
$DIMTVP
 40
0.0
  9
$DIMTIX
 70
     0
  9
$DIMSOXD
 70
     0
  9
$DIMSAH
 70
     0
  9
$DIMBLK1
  1

  9
$DIMBLK2
  1

  9
$DIMSTYLE
  2
STANDARD
  9
$DIMCLRD
 70
     0
  9
$DIMCLRE
 70
     0
  9
$DIMCLRT
 70
     0
  9
$DIMTFAC
 40
1.0
  9
$DIMGAP
 40
0.09
  9
$LUNITS
 70
     2
  9
$LUPREC
 70
     4
  9
$SKETCHINC
 40
0.1
  9
$FILLETRAD
 40
0.5
  9
$AUNITS
 70
     0
  9
$AUPREC
 70
     0
  9
$MENU
  1
.
  9
$ELEVATION
 40
0.0
  9
$PELEVATION
 40
0.0
  9
$THICKNESS
 40
0.0
  9
$LIMCHECK
 70
     0
  9
$CHAMFERA
 40
0.0
  9
$CHAMFERB
 40
0.0
  9
$SKPOLY
 70
     0
  9
$TDCREATE
 40
2454910.5
  9
$TDUPDATE
 40
2460886.487964375
  9
$TDINDWG
 40
0.0000000116
  9
$TDUSRTIMER
 40
0.0000000116
  9
$USRTIMER
 70
     1
  9
$ANGBASE
 50
0.0
  9
$ANGDIR
 70
     0
  9
$PDMODE
 70
     0
  9
$PDSIZE
 40
0.0
  9
$PLINEWID
 40
0.0
  9
$COORDS
 70
     1
  9
$SPLFRAME
 70
     0
  9
$SPLINETYPE
 70
     6
  9
$SPLINESEGS
 70
     8
  9
$ATTDIA
 70
     0
  9
$ATTREQ
 70
     1
  9
$HANDLING
 70
     1
  9
$HANDSEED
  5
173
  9
$SURFTAB1
 70
     6
  9
$SURFTAB2
 70
     6
  9
$SURFTYPE
 70
     6
  9
$SURFU
 70
     6
  9
$SURFV
 70
     6
  9
$UCSNAME
  2

  9
$UCSORG
 10
0.0
 20
0.0
 30
0.0
  9
$UCSXDIR
 10
1.0
 20
0.0
 30
0.0
  9
$UCSYDIR
 10
0.0
 20
1.0
 30
0.0
  9
$PUCSNAME
  2

  9
$PUCSORG
 10
0.0
 20
0.0
 30
0.0
  9
$PUCSXDIR
 10
1.0
 20
0.0
 30
0.0
  9
$PUCSYDIR
 10
0.0
 20
1.0
 30
0.0
  9
$USERI1
 70
     0
  9
$USERI2
 70
     0
  9
$USERI3
 70
     0
  9
$USERI4
 70
     0
  9
$USERI5
 70
     0
  9
$USERR1
 40
0.0
  9
$USERR2
 40
0.0
  9
$USERR3
 40
0.0
  9
$USERR4
 40
0.0
  9
$USERR5
 40
0.0
  9
$WORLDVIEW
 70
     1
  9
$SHADEDGE
 70
     3
  9
$SHADEDIF
 70
    70
  9
$TILEMODE
 70
     1
  9
$MAXACTVP
 70
    64
  9
$PLIMCHECK
 70
     0
  9
$PEXTMIN
 10
1.000000000000000E+20
 20
1.000000000000000E+20
 30
1.000000000000000E+20
  9
$PEXTMAX
 10
-1.000000000000000E+20
 20
-1.000000000000000E+20
 30
-1.000000000000000E+20
  9
$PLIMMIN
 10
0.0
 20
0.0
  9
$PLIMMAX
 10
12.0
 20
9.0
  9
$UNITMODE
 70
     0
  9
$VISRETAIN
 70
     1
  9
$PLINEGEN
 70
     0
  9
$PSLTSCALE
 70
     1
  0
ENDSEC
  0
SECTION
  2
TABLES
  0
TABLE
  2
VPORT
 70
     1
  0
VPORT
  2
*ACTIVE
 70
     0
 10
0.0
 20
0.0
 11
1.0
 21
1.0
 12
10.42990654205607
 22
4.5
 13
0.0
 23
0.0
 14
0.5
 24
0.5
 15
0.5
 25
0.5
 16
0.0
 26
0.0
 36
1.0
 17
0.0
 27
0.0
 37
0.0
 40
9.0
 41
1.972972972850329
 42
50.0
 43
0.0
 44
0.0
 50
0.0
 51
0.0
 71
     0
 72
   100
 73
     1
 74
     3
 75
     0
 76
     0
 77
     0
 78
     0
  0
ENDTAB
  0
TABLE
  2
LTYPE
 70
     2
  0
LTYPE
  2
CONTINUOUS
 70
     0
  3
Solid line
 72
    65
 73
     0
 40
0.0
  0
LTYPE
  2
CONTINUOUS2
 70
     0
  3
Solid Line
 72
    65
 73
     0
 40
0.0
  0
ENDTAB
  0
TABLE
  2
LAYER
 70
     2
  0
LAYER
  2
0
 70
     0
 62
     7
  6
CONTINUOUS
  0
LAYER
  2
LAYER_1
 70
     0
 62
     7
  6
CONTINUOUS
  0
ENDTAB
  0
TABLE
  2
STYLE
 70
     1
  0
STYLE
  2
STANDARD
 70
     0
 40
0.0
 41
1.0
 50
0.0
 71
     0
 42
0.2
  3
txt
  4

  0
ENDTAB
  0
TABLE
  2
VIEW
 70
     0
  0
ENDTAB
  0
TABLE
  2
UCS
 70
     0
  0
ENDTAB
  0
TABLE
  2
APPID
 70
     1
  0
APPID
  2
ACAD
 70
     0
  0
ENDTAB
  0
TABLE
  2
DIMSTYLE
 70
     1
  0
DIMSTYLE
  2
STANDARD
 70
     0
  3

  4

  5

  6

  7

 40
1.0
 41
0.18
 42
0.0625
 43
0.38
 44
0.18
 45
0.0
 46
0.0
 47
0.0
 48
0.0
140
0.18
141
0.09
142
0.0
143
25.4
144
1.0
145
0.0
146
1.0
147
0.09
 71
     0
 72
     0
 73
     1
 74
     1
 75
     0
 76
     0
 77
     0
 78
     0
170
     0
171
     2
172
     0
173
     0
174
     0
175
     0
176
     0
177
     0
178
     0
  0
ENDTAB
  0
ENDSEC
  0
SECTION
  2
BLOCKS
  0
BLOCK
  8
0
  2
$MODEL_SPACE
 70
     0
 10
0.0
 20
0.0
 30
0.0
  3
$MODEL_SPACE
  1

  0
ENDBLK
  5
21
  8
0
  0
BLOCK
 67
     1
  8
0
  2
$PAPER_SPACE
 70
     0
 10
0.0
 20
0.0
 30
0.0
  3
$PAPER_SPACE
  1

  0
ENDBLK
  5
1D
 67
     1
  8
0
  0
ENDSEC
  0
SECTION
  2
ENTITIES
  0
POLYLINE
  5
70
  8
LAYER_1
 66
     1
 10
0.0
 20
0.0
 30
0.0
 70
     1
  0
VERTEX
  5
7B
  8
LAYER_1
 10
148.5
 20
330.6350617283953
 30
0.0
  0
VERTEX
  5
7C
  8
LAYER_1
 10
148.34562039791
 20
330.6311581470111
 30
0.0
  0
VERTEX
  5
7D
  8
LAYER_1
 10
148.1932674271467
 20
330.6195730665855
 30
0.0
  0
VERTEX
  5
7E
  8
LAYER_1
 10
148.0431295833006
 20
330.6004949827091
 30
0.0
  0
VERTEX
  5
7F
  8
LAYER_1
 10
147.8953953619622
 20
330.5741123909721
 30
0.0
  0
VERTEX
  5
80
  8
LAYER_1
 10
147.6078917691705
 20
330.500187666279
 30
0.0
  0
VERTEX
  5
81
  8
LAYER_1
 10
147.3322646134955
 20
330.3993068572302
 30
0.0
  0
VERTEX
  5
82
  8
LAYER_1
 10
147.070021859661
 20
330.2729779285494
 30
0.0
  0
VERTEX
  5
83
  8
LAYER_1
 10
146.8226714723911
 20
330.1227088449607
 30
0.0
  0
VERTEX
  5
84
  8
LAYER_1
 10
146.5917214164095
 20
329.9500075711879
 30
0.0
  0
VERTEX
  5
85
  8
LAYER_1
 10
146.3786796564404
 20
329.7563820719549
 30
0.0
  0
VERTEX
  5
86
  8
LAYER_1
 10
146.1850541572074
 20
329.5433403119857
 30
0.0
  0
VERTEX
  5
87
  8
LAYER_1
 10
146.0123528834346
 20
329.3123902560042
 30
0.0
  0
VERTEX
  5
88
  8
LAYER_1
 10
145.8620837998459
 20
329.0650398687343
 30
0.0
  0
VERTEX
  5
89
  8
LAYER_1
 10
145.7357548711651
 20
328.8027971148999
 30
0.0
  0
VERTEX
  5
8A
  8
LAYER_1
 10
145.6348740621162
 20
328.5271699592249
 30
0.0
  0
VERTEX
  5
8B
  8
LAYER_1
 10
145.5609493374232
 20
328.2396663664331
 30
0.0
  0
VERTEX
  5
8C
  8
LAYER_1
 10
145.5345667456862
 20
328.0919321450947
 30
0.0
  0
VERTEX
  5
8D
  8
LAYER_1
 10
145.5154886618098
 20
327.9417943012486
 30
0.0
  0
VERTEX
  5
8E
  8
LAYER_1
 10
145.5039035813842
 20
327.7894413304854
 30
0.0
  0
VERTEX
  5
8F
  8
LAYER_1
 10
145.5
 20
327.6350617283953
 30
0.0
  0
VERTEX
  5
90
  8
LAYER_1
 10
145.5039035813842
 20
327.4806821263052
 30
0.0
  0
VERTEX
  5
91
  8
LAYER_1
 10
145.5154886618098
 20
327.3283291555419
 30
0.0
  0
VERTEX
  5
92
  8
LAYER_1
 10
145.5345667456862
 20
327.1781913116958
 30
0.0
  0
VERTEX
  5
93
  8
LAYER_1
 10
145.5609493374232
 20
327.0304570903574
 30
0.0
  0
VERTEX
  5
94
  8
LAYER_1
 10
145.6348740621162
 20
326.7429534975657
 30
0.0
  0
VERTEX
  5
95
  8
LAYER_1
 10
145.7357548711651
 20
326.4673263418907
 30
0.0
  0
VERTEX
  5
96
  8
LAYER_1
 10
145.8620837998459
 20
326.2050835880563
 30
0.0
  0
VERTEX
  5
97
  8
LAYER_1
 10
146.0123528834346
 20
325.9577332007864
 30
0.0
  0
VERTEX
  5
98
  8
LAYER_1
 10
146.1850541572074
 20
325.7267831448048
 30
0.0
  0
VERTEX
  5
99
  8
LAYER_1
 10
146.3786796564404
 20
325.5137413848356
 30
0.0
  0
VERTEX
  5
9A
  8
LAYER_1
 10
146.5917214164095
 20
325.3201158856027
 30
0.0
  0
VERTEX
  5
9B
  8
LAYER_1
 10
146.8226714723911
 20
325.1474146118298
 30
0.0
  0
VERTEX
  5
9C
  8
LAYER_1
 10
147.070021859661
 20
324.9971455282412
 30
0.0
  0
VERTEX
  5
9D
  8
LAYER_1
 10
147.3322646134955
 20
324.8708165995604
 30
0.0
  0
VERTEX
  5
9E
  8
LAYER_1
 10
147.6078917691705
 20
324.7699357905115
 30
0.0
  0
VERTEX
  5
9F
  8
LAYER_1
 10
147.8953953619622
 20
324.6960110658184
 30
0.0
  0
VERTEX
  5
A0
  8
LAYER_1
 10
148.0431295833006
 20
324.6696284740815
 30
0.0
  0
VERTEX
  5
A1
  8
LAYER_1
 10
148.1932674271467
 20
324.650550390205
 30
0.0
  0
VERTEX
  5
A2
  8
LAYER_1
 10
148.34562039791
 20
324.6389653097795
 30
0.0
  0
VERTEX
  5
A3
  8
LAYER_1
 10
148.5
 20
324.6350617283953
 30
0.0
  0
VERTEX
  5
A4
  8
LAYER_1
 10
148.65437960209
 20
324.6389653097795
 30
0.0
  0
VERTEX
  5
A5
  8
LAYER_1
 10
148.8067325728534
 20
324.650550390205
 30
0.0
  0
VERTEX
  5
A6
  8
LAYER_1
 10
148.9568704166995
 20
324.6696284740815
 30
0.0
  0
VERTEX
  5
A7
  8
LAYER_1
 10
149.1046046380379
 20
324.6960110658184
 30
0.0
  0
VERTEX
  5
A8
  8
LAYER_1
 10
149.3921082308296
 20
324.7699357905115
 30
0.0
  0
VERTEX
  5
A9
  8
LAYER_1
 10
149.6677353865046
 20
324.8708165995604
 30
0.0
  0
VERTEX
  5
AA
  8
LAYER_1
 10
149.9299781403391
 20
324.9971455282412
 30
0.0
  0
VERTEX
  5
AB
  8
LAYER_1
 10
150.177328527609
 20
325.1474146118298
 30
0.0
  0
VERTEX
  5
AC
  8
LAYER_1
 10
150.4082785835905
 20
325.3201158856027
 30
0.0
  0
VERTEX
  5
AD
  8
LAYER_1
 10
150.6213203435597
 20
325.5137413848356
 30
0.0
  0
VERTEX
  5
AE
  8
LAYER_1
 10
150.8149458427926
 20
325.7267831448048
 30
0.0
  0
VERTEX
  5
AF
  8
LAYER_1
 10
150.9876471165654
 20
325.9577332007864
 30
0.0
  0
VERTEX
  5
B0
  8
LAYER_1
 10
151.1379162001541
 20
326.2050835880563
 30
0.0
  0
VERTEX
  5
B1
  8
LAYER_1
 10
151.2642451288349
 20
326.4673263418907
 30
0.0
  0
VERTEX
  5
B2
  8
LAYER_1
 10
151.3651259378838
 20
326.7429534975657
 30
0.0
  0
VERTEX
  5
B3
  8
LAYER_1
 10
151.4390506625768
 20
327.0304570903574
 30
0.0
  0
VERTEX
  5
B4
  8
LAYER_1
 10
151.4654332543138
 20
327.1781913116958
 30
0.0
  0
VERTEX
  5
B5
  8
LAYER_1
 10
151.4845113381902
 20
327.3283291555419
 30
0.0
  0
VERTEX
  5
B6
  8
LAYER_1
 10
151.4960964186158
 20
327.4806821263052
 30
0.0
  0
VERTEX
  5
B7
  8
LAYER_1
 10
151.5
 20
327.6350617283953
 30
0.0
  0
VERTEX
  5
B8
  8
LAYER_1
 10
151.4960964186158
 20
327.7894413304854
 30
0.0
  0
VERTEX
  5
B9
  8
LAYER_1
 10
151.4845113381902
 20
327.9417943012486
 30
0.0
  0
VERTEX
  5
BA
  8
LAYER_1
 10
151.4654332543138
 20
328.0919321450947
 30
0.0
  0
VERTEX
  5
BB
  8
LAYER_1
 10
151.4390506625768
 20
328.2396663664331
 30
0.0
  0
VERTEX
  5
BC
  8
LAYER_1
 10
151.3651259378838
 20
328.5271699592249
 30
0.0
  0
VERTEX
  5
BD
  8
LAYER_1
 10
151.2642451288349
 20
328.8027971148999
 30
0.0
  0
VERTEX
  5
BE
  8
LAYER_1
 10
151.1379162001541
 20
329.0650398687343
 30
0.0
  0
VERTEX
  5
BF
  8
LAYER_1
 10
150.9876471165654
 20
329.3123902560042
 30
0.0
  0
VERTEX
  5
C0
  8
LAYER_1
 10
150.8149458427926
 20
329.5433403119857
 30
0.0
  0
VERTEX
  5
C1
  8
LAYER_1
 10
150.6213203435597
 20
329.7563820719549
 30
0.0
  0
VERTEX
  5
C2
  8
LAYER_1
 10
150.4082785835905
 20
329.9500075711879
 30
0.0
  0
VERTEX
  5
C3
  8
LAYER_1
 10
150.177328527609
 20
330.1227088449607
 30
0.0
  0
VERTEX
  5
C4
  8
LAYER_1
 10
149.9299781403391
 20
330.2729779285494
 30
0.0
  0
VERTEX
  5
C5
  8
LAYER_1
 10
149.6677353865046
 20
330.3993068572302
 30
0.0
  0
VERTEX
  5
C6
  8
LAYER_1
 10
149.3921082308296
 20
330.500187666279
 30
0.0
  0
VERTEX
  5
C7
  8
LAYER_1
 10
149.1046046380379
 20
330.5741123909721
 30
0.0
  0
VERTEX
  5
C8
  8
LAYER_1
 10
148.9568704166995
 20
330.6004949827091
 30
0.0
  0
VERTEX
  5
C9
  8
LAYER_1
 10
148.8067325728534
 20
330.6195730665855
 30
0.0
  0
VERTEX
  5
CA
  8
LAYER_1
 10
148.65437960209
 20
330.6311581470111
 30
0.0
  0
SEQEND
  5
16F
  8
LAYER_1
  0
POLYLINE
  5
71
  8
LAYER_1
 66
     1
 10
0.0
 20
0.0
 30
0.0
 70
     1
  0
VERTEX
  5
CB
  8
LAYER_1
 10
148.5
 20
230.6350617283953
 30
0.0
  0
VERTEX
  5
CC
  8
LAYER_1
 10
148.34562039791
 20
230.6311581470111
 30
0.0
  0
VERTEX
  5
CD
  8
LAYER_1
 10
148.1932674271467
 20
230.6195730665855
 30
0.0
  0
VERTEX
  5
CE
  8
LAYER_1
 10
148.0431295833006
 20
230.600494982709
 30
0.0
  0
VERTEX
  5
CF
  8
LAYER_1
 10
147.8953953619622
 20
230.5741123909721
 30
0.0
  0
VERTEX
  5
D0
  8
LAYER_1
 10
147.6078917691705
 20
230.500187666279
 30
0.0
  0
VERTEX
  5
D1
  8
LAYER_1
 10
147.3322646134955
 20
230.3993068572302
 30
0.0
  0
VERTEX
  5
D2
  8
LAYER_1
 10
147.070021859661
 20
230.2729779285494
 30
0.0
  0
VERTEX
  5
D3
  8
LAYER_1
 10
146.8226714723911
 20
230.1227088449606
 30
0.0
  0
VERTEX
  5
D4
  8
LAYER_1
 10
146.5917214164095
 20
229.9500075711879
 30
0.0
  0
VERTEX
  5
D5
  8
LAYER_1
 10
146.3786796564404
 20
229.7563820719549
 30
0.0
  0
VERTEX
  5
D6
  8
LAYER_1
 10
146.1850541572074
 20
229.5433403119857
 30
0.0
  0
VERTEX
  5
D7
  8
LAYER_1
 10
146.0123528834346
 20
229.3123902560042
 30
0.0
  0
VERTEX
  5
D8
  8
LAYER_1
 10
145.8620837998459
 20
229.0650398687343
 30
0.0
  0
VERTEX
  5
D9
  8
LAYER_1
 10
145.7357548711651
 20
228.8027971148999
 30
0.0
  0
VERTEX
  5
DA
  8
LAYER_1
 10
145.6348740621162
 20
228.5271699592248
 30
0.0
  0
VERTEX
  5
DB
  8
LAYER_1
 10
145.5609493374232
 20
228.2396663664331
 30
0.0
  0
VERTEX
  5
DC
  8
LAYER_1
 10
145.5345667456862
 20
228.0919321450947
 30
0.0
  0
VERTEX
  5
DD
  8
LAYER_1
 10
145.5154886618098
 20
227.9417943012486
 30
0.0
  0
VERTEX
  5
DE
  8
LAYER_1
 10
145.5039035813842
 20
227.7894413304853
 30
0.0
  0
VERTEX
  5
DF
  8
LAYER_1
 10
145.5
 20
227.6350617283953
 30
0.0
  0
VERTEX
  5
E0
  8
LAYER_1
 10
145.5039035813842
 20
227.4806821263052
 30
0.0
  0
VERTEX
  5
E1
  8
LAYER_1
 10
145.5154886618098
 20
227.3283291555419
 30
0.0
  0
VERTEX
  5
E2
  8
LAYER_1
 10
145.5345667456862
 20
227.1781913116959
 30
0.0
  0
VERTEX
  5
E3
  8
LAYER_1
 10
145.5609493374232
 20
227.0304570903575
 30
0.0
  0
VERTEX
  5
E4
  8
LAYER_1
 10
145.6348740621162
 20
226.7429534975658
 30
0.0
  0
VERTEX
  5
E5
  8
LAYER_1
 10
145.7357548711651
 20
226.4673263418907
 30
0.0
  0
VERTEX
  5
E6
  8
LAYER_1
 10
145.8620837998459
 20
226.2050835880563
 30
0.0
  0
VERTEX
  5
E7
  8
LAYER_1
 10
146.0123528834346
 20
225.9577332007864
 30
0.0
  0
VERTEX
  5
E8
  8
LAYER_1
 10
146.1850541572074
 20
225.7267831448049
 30
0.0
  0
VERTEX
  5
E9
  8
LAYER_1
 10
146.3786796564404
 20
225.5137413848357
 30
0.0
  0
VERTEX
  5
EA
  8
LAYER_1
 10
146.5917214164095
 20
225.3201158856027
 30
0.0
  0
VERTEX
  5
EB
  8
LAYER_1
 10
146.8226714723911
 20
225.1474146118299
 30
0.0
  0
VERTEX
  5
EC
  8
LAYER_1
 10
147.070021859661
 20
224.9971455282412
 30
0.0
  0
VERTEX
  5
ED
  8
LAYER_1
 10
147.3322646134955
 20
224.8708165995604
 30
0.0
  0
VERTEX
  5
EE
  8
LAYER_1
 10
147.6078917691705
 20
224.7699357905115
 30
0.0
  0
VERTEX
  5
EF
  8
LAYER_1
 10
147.8953953619622
 20
224.6960110658184
 30
0.0
  0
VERTEX
  5
F0
  8
LAYER_1
 10
148.0431295833006
 20
224.6696284740815
 30
0.0
  0
VERTEX
  5
F1
  8
LAYER_1
 10
148.1932674271467
 20
224.650550390205
 30
0.0
  0
VERTEX
  5
F2
  8
LAYER_1
 10
148.34562039791
 20
224.6389653097795
 30
0.0
  0
VERTEX
  5
F3
  8
LAYER_1
 10
148.5
 20
224.6350617283953
 30
0.0
  0
VERTEX
  5
F4
  8
LAYER_1
 10
148.65437960209
 20
224.6389653097795
 30
0.0
  0
VERTEX
  5
F5
  8
LAYER_1
 10
148.8067325728534
 20
224.650550390205
 30
0.0
  0
VERTEX
  5
F6
  8
LAYER_1
 10
148.9568704166995
 20
224.6696284740815
 30
0.0
  0
VERTEX
  5
F7
  8
LAYER_1
 10
149.1046046380379
 20
224.6960110658184
 30
0.0
  0
VERTEX
  5
F8
  8
LAYER_1
 10
149.3921082308296
 20
224.7699357905115
 30
0.0
  0
VERTEX
  5
F9
  8
LAYER_1
 10
149.6677353865046
 20
224.8708165995604
 30
0.0
  0
VERTEX
  5
FA
  8
LAYER_1
 10
149.9299781403391
 20
224.9971455282412
 30
0.0
  0
VERTEX
  5
FB
  8
LAYER_1
 10
150.177328527609
 20
225.1474146118299
 30
0.0
  0
VERTEX
  5
FC
  8
LAYER_1
 10
150.4082785835905
 20
225.3201158856027
 30
0.0
  0
VERTEX
  5
FD
  8
LAYER_1
 10
150.6213203435597
 20
225.5137413848357
 30
0.0
  0
VERTEX
  5
FE
  8
LAYER_1
 10
150.8149458427926
 20
225.7267831448049
 30
0.0
  0
VERTEX
  5
FF
  8
LAYER_1
 10
150.9876471165654
 20
225.9577332007864
 30
0.0
  0
VERTEX
  5
100
  8
LAYER_1
 10
151.1379162001541
 20
226.2050835880563
 30
0.0
  0
VERTEX
  5
101
  8
LAYER_1
 10
151.2642451288349
 20
226.4673263418907
 30
0.0
  0
VERTEX
  5
102
  8
LAYER_1
 10
151.3651259378838
 20
226.7429534975658
 30
0.0
  0
VERTEX
  5
103
  8
LAYER_1
 10
151.4390506625768
 20
227.0304570903575
 30
0.0
  0
VERTEX
  5
104
  8
LAYER_1
 10
151.4654332543138
 20
227.1781913116959
 30
0.0
  0
VERTEX
  5
105
  8
LAYER_1
 10
151.4845113381902
 20
227.3283291555419
 30
0.0
  0
VERTEX
  5
106
  8
LAYER_1
 10
151.4960964186158
 20
227.4806821263052
 30
0.0
  0
VERTEX
  5
107
  8
LAYER_1
 10
151.5
 20
227.6350617283953
 30
0.0
  0
VERTEX
  5
108
  8
LAYER_1
 10
151.4960964186158
 20
227.7894413304853
 30
0.0
  0
VERTEX
  5
109
  8
LAYER_1
 10
151.4845113381902
 20
227.9417943012486
 30
0.0
  0
VERTEX
  5
10A
  8
LAYER_1
 10
151.4654332543138
 20
228.0919321450947
 30
0.0
  0
VERTEX
  5
10B
  8
LAYER_1
 10
151.4390506625768
 20
228.2396663664331
 30
0.0
  0
VERTEX
  5
10C
  8
LAYER_1
 10
151.3651259378838
 20
228.5271699592248
 30
0.0
  0
VERTEX
  5
10D
  8
LAYER_1
 10
151.2642451288349
 20
228.8027971148999
 30
0.0
  0
VERTEX
  5
10E
  8
LAYER_1
 10
151.1379162001541
 20
229.0650398687343
 30
0.0
  0
VERTEX
  5
10F
  8
LAYER_1
 10
150.9876471165654
 20
229.3123902560042
 30
0.0
  0
VERTEX
  5
110
  8
LAYER_1
 10
150.8149458427926
 20
229.5433403119857
 30
0.0
  0
VERTEX
  5
111
  8
LAYER_1
 10
150.6213203435597
 20
229.7563820719549
 30
0.0
  0
VERTEX
  5
112
  8
LAYER_1
 10
150.4082785835905
 20
229.9500075711879
 30
0.0
  0
VERTEX
  5
113
  8
LAYER_1
 10
150.177328527609
 20
230.1227088449606
 30
0.0
  0
VERTEX
  5
114
  8
LAYER_1
 10
149.9299781403391
 20
230.2729779285494
 30
0.0
  0
VERTEX
  5
115
  8
LAYER_1
 10
149.6677353865046
 20
230.3993068572302
 30
0.0
  0
VERTEX
  5
116
  8
LAYER_1
 10
149.3921082308296
 20
230.500187666279
 30
0.0
  0
VERTEX
  5
117
  8
LAYER_1
 10
149.1046046380379
 20
230.5741123909721
 30
0.0
  0
VERTEX
  5
118
  8
LAYER_1
 10
148.9568704166995
 20
230.600494982709
 30
0.0
  0
VERTEX
  5
119
  8
LAYER_1
 10
148.8067325728534
 20
230.6195730665855
 30
0.0
  0
VERTEX
  5
11A
  8
LAYER_1
 10
148.65437960209
 20
230.6311581470111
 30
0.0
  0
SEQEND
  5
170
  8
LAYER_1
  0
POLYLINE
  5
72
  8
LAYER_1
 66
     1
 10
0.0
 20
0.0
 30
0.0
 70
     1
  0
VERTEX
  5
11B
  8
LAYER_1
 10
148.5
 20
280.6350617283953
 30
0.0
  0
VERTEX
  5
11C
  8
LAYER_1
 10
148.34562039791
 20
280.6311581470111
 30
0.0
  0
VERTEX
  5
11D
  8
LAYER_1
 10
148.1932674271467
 20
280.6195730665855
 30
0.0
  0
VERTEX
  5
11E
  8
LAYER_1
 10
148.0431295833006
 20
280.6004949827091
 30
0.0
  0
VERTEX
  5
11F
  8
LAYER_1
 10
147.8953953619622
 20
280.5741123909721
 30
0.0
  0
VERTEX
  5
120
  8
LAYER_1
 10
147.6078917691705
 20
280.500187666279
 30
0.0
  0
VERTEX
  5
121
  8
LAYER_1
 10
147.3322646134955
 20
280.3993068572302
 30
0.0
  0
VERTEX
  5
122
  8
LAYER_1
 10
147.070021859661
 20
280.2729779285494
 30
0.0
  0
VERTEX
  5
123
  8
LAYER_1
 10
146.8226714723911
 20
280.1227088449607
 30
0.0
  0
VERTEX
  5
124
  8
LAYER_1
 10
146.5917214164095
 20
279.9500075711879
 30
0.0
  0
VERTEX
  5
125
  8
LAYER_1
 10
146.3786796564404
 20
279.7563820719549
 30
0.0
  0
VERTEX
  5
126
  8
LAYER_1
 10
146.1850541572074
 20
279.5433403119857
 30
0.0
  0
VERTEX
  5
127
  8
LAYER_1
 10
146.0123528834346
 20
279.3123902560042
 30
0.0
  0
VERTEX
  5
128
  8
LAYER_1
 10
145.8620837998459
 20
279.0650398687343
 30
0.0
  0
VERTEX
  5
129
  8
LAYER_1
 10
145.7357548711651
 20
278.8027971148999
 30
0.0
  0
VERTEX
  5
12A
  8
LAYER_1
 10
145.6348740621162
 20
278.5271699592249
 30
0.0
  0
VERTEX
  5
12B
  8
LAYER_1
 10
145.5609493374232
 20
278.2396663664331
 30
0.0
  0
VERTEX
  5
12C
  8
LAYER_1
 10
145.5345667456862
 20
278.0919321450947
 30
0.0
  0
VERTEX
  5
12D
  8
LAYER_1
 10
145.5154886618098
 20
277.9417943012486
 30
0.0
  0
VERTEX
  5
12E
  8
LAYER_1
 10
145.5039035813842
 20
277.7894413304854
 30
0.0
  0
VERTEX
  5
12F
  8
LAYER_1
 10
145.5
 20
277.6350617283953
 30
0.0
  0
VERTEX
  5
130
  8
LAYER_1
 10
145.5039035813842
 20
277.4806821263052
 30
0.0
  0
VERTEX
  5
131
  8
LAYER_1
 10
145.5154886618098
 20
277.3283291555419
 30
0.0
  0
VERTEX
  5
132
  8
LAYER_1
 10
145.5345667456862
 20
277.1781913116958
 30
0.0
  0
VERTEX
  5
133
  8
LAYER_1
 10
145.5609493374232
 20
277.0304570903574
 30
0.0
  0
VERTEX
  5
134
  8
LAYER_1
 10
145.6348740621162
 20
276.7429534975657
 30
0.0
  0
VERTEX
  5
135
  8
LAYER_1
 10
145.7357548711651
 20
276.4673263418907
 30
0.0
  0
VERTEX
  5
136
  8
LAYER_1
 10
145.8620837998459
 20
276.2050835880563
 30
0.0
  0
VERTEX
  5
137
  8
LAYER_1
 10
146.0123528834346
 20
275.9577332007864
 30
0.0
  0
VERTEX
  5
138
  8
LAYER_1
 10
146.1850541572074
 20
275.7267831448048
 30
0.0
  0
VERTEX
  5
139
  8
LAYER_1
 10
146.3786796564404
 20
275.5137413848356
 30
0.0
  0
VERTEX
  5
13A
  8
LAYER_1
 10
146.5917214164095
 20
275.3201158856027
 30
0.0
  0
VERTEX
  5
13B
  8
LAYER_1
 10
146.8226714723911
 20
275.1474146118298
 30
0.0
  0
VERTEX
  5
13C
  8
LAYER_1
 10
147.070021859661
 20
274.9971455282412
 30
0.0
  0
VERTEX
  5
13D
  8
LAYER_1
 10
147.3322646134955
 20
274.8708165995604
 30
0.0
  0
VERTEX
  5
13E
  8
LAYER_1
 10
147.6078917691705
 20
274.7699357905115
 30
0.0
  0
VERTEX
  5
13F
  8
LAYER_1
 10
147.8953953619622
 20
274.6960110658184
 30
0.0
  0
VERTEX
  5
140
  8
LAYER_1
 10
148.0431295833006
 20
274.6696284740815
 30
0.0
  0
VERTEX
  5
141
  8
LAYER_1
 10
148.1932674271467
 20
274.650550390205
 30
0.0
  0
VERTEX
  5
142
  8
LAYER_1
 10
148.34562039791
 20
274.6389653097795
 30
0.0
  0
VERTEX
  5
143
  8
LAYER_1
 10
148.5
 20
274.6350617283953
 30
0.0
  0
VERTEX
  5
144
  8
LAYER_1
 10
148.65437960209
 20
274.6389653097795
 30
0.0
  0
VERTEX
  5
145
  8
LAYER_1
 10
148.8067325728534
 20
274.650550390205
 30
0.0
  0
VERTEX
  5
146
  8
LAYER_1
 10
148.9568704166995
 20
274.6696284740815
 30
0.0
  0
VERTEX
  5
147
  8
LAYER_1
 10
149.1046046380379
 20
274.6960110658184
 30
0.0
  0
VERTEX
  5
148
  8
LAYER_1
 10
149.3921082308296
 20
274.7699357905115
 30
0.0
  0
VERTEX
  5
149
  8
LAYER_1
 10
149.6677353865046
 20
274.8708165995604
 30
0.0
  0
VERTEX
  5
14A
  8
LAYER_1
 10
149.9299781403391
 20
274.9971455282412
 30
0.0
  0
VERTEX
  5
14B
  8
LAYER_1
 10
150.177328527609
 20
275.1474146118298
 30
0.0
  0
VERTEX
  5
14C
  8
LAYER_1
 10
150.4082785835905
 20
275.3201158856027
 30
0.0
  0
VERTEX
  5
14D
  8
LAYER_1
 10
150.6213203435597
 20
275.5137413848356
 30
0.0
  0
VERTEX
  5
14E
  8
LAYER_1
 10
150.8149458427926
 20
275.7267831448048
 30
0.0
  0
VERTEX
  5
14F
  8
LAYER_1
 10
150.9876471165654
 20
275.9577332007864
 30
0.0
  0
VERTEX
  5
150
  8
LAYER_1
 10
151.1379162001541
 20
276.2050835880563
 30
0.0
  0
VERTEX
  5
151
  8
LAYER_1
 10
151.2642451288349
 20
276.4673263418907
 30
0.0
  0
VERTEX
  5
152
  8
LAYER_1
 10
151.3651259378838
 20
276.7429534975657
 30
0.0
  0
VERTEX
  5
153
  8
LAYER_1
 10
151.4390506625768
 20
277.0304570903574
 30
0.0
  0
VERTEX
  5
154
  8
LAYER_1
 10
151.4654332543138
 20
277.1781913116958
 30
0.0
  0
VERTEX
  5
155
  8
LAYER_1
 10
151.4845113381902
 20
277.3283291555419
 30
0.0
  0
VERTEX
  5
156
  8
LAYER_1
 10
151.4960964186158
 20
277.4806821263052
 30
0.0
  0
VERTEX
  5
157
  8
LAYER_1
 10
151.5
 20
277.6350617283953
 30
0.0
  0
VERTEX
  5
158
  8
LAYER_1
 10
151.4960964186158
 20
277.7894413304854
 30
0.0
  0
VERTEX
  5
159
  8
LAYER_1
 10
151.4845113381902
 20
277.9417943012486
 30
0.0
  0
VERTEX
  5
15A
  8
LAYER_1
 10
151.4654332543138
 20
278.0919321450947
 30
0.0
  0
VERTEX
  5
15B
  8
LAYER_1
 10
151.4390506625768
 20
278.2396663664331
 30
0.0
  0
VERTEX
  5
15C
  8
LAYER_1
 10
151.3651259378838
 20
278.5271699592249
 30
0.0
  0
VERTEX
  5
15D
  8
LAYER_1
 10
151.2642451288349
 20
278.8027971148999
 30
0.0
  0
VERTEX
  5
15E
  8
LAYER_1
 10
151.1379162001541
 20
279.0650398687343
 30
0.0
  0
VERTEX
  5
15F
  8
LAYER_1
 10
150.9876471165654
 20
279.3123902560042
 30
0.0
  0
VERTEX
  5
160
  8
LAYER_1
 10
150.8149458427926
 20
279.5433403119857
 30
0.0
  0
VERTEX
  5
161
  8
LAYER_1
 10
150.6213203435597
 20
279.7563820719549
 30
0.0
  0
VERTEX
  5
162
  8
LAYER_1
 10
150.4082785835905
 20
279.9500075711879
 30
0.0
  0
VERTEX
  5
163
  8
LAYER_1
 10
150.177328527609
 20
280.1227088449607
 30
0.0
  0
VERTEX
  5
164
  8
LAYER_1
 10
149.9299781403391
 20
280.2729779285494
 30
0.0
  0
VERTEX
  5
165
  8
LAYER_1
 10
149.6677353865046
 20
280.3993068572302
 30
0.0
  0
VERTEX
  5
166
  8
LAYER_1
 10
149.3921082308296
 20
280.500187666279
 30
0.0
  0
VERTEX
  5
167
  8
LAYER_1
 10
149.1046046380379
 20
280.5741123909721
 30
0.0
  0
VERTEX
  5
168
  8
LAYER_1
 10
148.9568704166995
 20
280.6004949827091
 30
0.0
  0
VERTEX
  5
169
  8
LAYER_1
 10
148.8067325728534
 20
280.6195730665855
 30
0.0
  0
VERTEX
  5
16A
  8
LAYER_1
 10
148.65437960209
 20
280.6311581470111
 30
0.0
  0
SEQEND
  5
171
  8
LAYER_1
  0
POLYLINE
  5
73
  8
LAYER_1
 66
     1
 10
0.0
 20
0.0
 30
0.0
 70
     1
  0
VERTEX
  5
16B
  8
LAYER_1
 10
148.4999999999999
 20
142.3543209876544
 30
0.0
 42
0.4142135623730951
  0
VERTEX
  5
16C
  8
LAYER_1
 10
100.9999999999999
 20
94.85432098765438
 30
0.0
 42
0.4142135623730951
  0
VERTEX
  5
16D
  8
LAYER_1
 10
148.4999999999999
 20
47.35432098765436
 30
0.0
 42
0.4142135623730951
  0
VERTEX
  5
16E
  8
LAYER_1
 10
196.0000000000001
 20
94.85432098765438
 30
0.0
 42
0.4142135623730951
  0
SEQEND
  5
172
  8
LAYER_1
  0
ENDSEC
  0
EOF
